<svg width="149" height="135" viewBox="0 0 149 135" fill="none" xmlns="http://www.w3.org/2000/svg">
<path d="M96.3388 41.5005C103.055 42.5157 109.564 44.6017 115.615 47.6784C115.395 42.0031 114.138 31.3416 107.257 20.595C104.184 15.7954 97.8973 6.00139 85.6327 1.86247C77.063 -1.01167 69.714 0.208518 68.306 0.549036C63.5885 1.68419 59.1015 3.61754 55.0404 6.26489C42.2143 14.6481 37.8562 27.6446 36.5662 32.1686C31.4574 46.9485 31.4574 63.006 36.5662 77.7859C42.1044 90.8027 47.2113 101.278 56.7536 110.784C62.6095 108.689 68.0139 105.507 72.6804 101.407C67.6631 96.7901 56.6111 85.2976 52.8756 67.2218C52.4117 64.9679 49.3191 49.0689 55.4351 34.9698C59.0974 26.542 66.894 16.7723 77.2461 18.6654C90.6419 21.1139 95.9482 40.037 96.3388 41.5005Z" fill="#101828"/>
<path d="M148.734 92.9715C149.174 98.3557 148.591 103.774 147.017 108.943C143.542 118.133 136.608 123.574 132.632 126.168C125.911 129.862 118.5 132.143 110.858 132.869C95.3664 134.296 83.5168 128.815 78.6541 126.188C84.6591 122.831 90.0934 118.548 94.756 113.5C99.8239 114.594 105.028 114.926 110.195 114.485C119.509 113.674 128.445 109.62 130.585 99.6967C130.894 97.0383 130.785 94.3482 130.264 91.7229C128.925 85.0909 124.84 79.4683 119.773 75.1024C115.017 71.008 109.446 67.8988 103.688 65.43C99.1426 63.4802 94.4223 61.8181 89.5026 61.1289C84.6521 60.4479 79.6185 60.3182 74.7233 60.2939C73.7032 60.2939 72.6846 60.2939 71.6673 60.2939C65.8247 60.4086 59.9929 60.843 54.1982 61.5951C53.5941 55.5 53.8324 49.3512 54.9062 43.3206C91.5291 37.9534 124.954 47.9379 140.36 71.2553C143.611 76.2091 147.074 83.2708 148.734 92.9715Z" fill="#101828"/>
<path d="M87.4518 116.569C105.739 100.876 111.607 81.1101 113.495 73.6227C108.311 70.2391 102.763 67.4461 96.9534 65.2962C95.5821 71.6566 89.8038 94.7633 68.6235 107.735C63.3464 110.937 57.5828 113.264 51.5573 114.627C45.1568 115.795 38.5965 115.795 32.196 114.627C24.497 112.328 21.555 107.966 20.6679 106.475C15.439 97.6536 19.3495 83.0113 32.196 72.6417C30.489 65.9453 29.7774 59.0357 30.0841 52.1336C17.6502 58.9587 7.93264 69.8138 2.54364 82.8978C1.64028 85.6017 -3.39741 101.44 5.27408 116.029C10.5274 123.351 16.2365 127.287 20.4278 129.48C39.3293 139.383 65.535 134.203 87.4518 116.569Z" fill="#101828"/>
</svg>
