<svg width="310" height="135" viewBox="0 0 310 135" fill="none" xmlns="http://www.w3.org/2000/svg">
<path d="M87.8447 92.2285C82.9882 92.3681 78.2085 90.9941 74.1676 88.2967C70.4598 85.5971 68.606 82.5727 68.606 79.2234C68.606 77.5432 69.5637 76.6526 71.4456 76.6526H121.702C122.331 73.7147 122.646 70.7182 122.643 67.7137C122.784 63.2779 121.99 58.8621 120.31 54.754C118.631 50.6459 116.105 46.9378 112.897 43.8712C106.479 37.6543 98.1726 34.5402 87.9791 34.529C77.2256 34.529 68.3763 37.8894 61.4313 44.6104C54.4863 51.3313 51.053 60.0407 51.1314 70.7382C51.1314 81.3013 54.5199 89.9714 61.2969 96.7483C64.6925 100.102 68.738 102.727 73.1849 104.46C77.6317 106.194 82.386 107 87.1558 106.83C94.8996 107.021 102.544 105.055 109.234 101.151C115.586 97.2012 120.226 91.014 122.239 83.8105H105.655C102.9 89.4225 96.9628 92.2285 87.8447 92.2285ZM74.8396 52.81C78.7811 50.0901 83.4961 48.717 88.2816 48.8951C92.8878 48.692 97.4245 50.0737 101.135 52.81C104.496 55.3415 106.176 58.2316 106.176 61.4801C106.22 61.7777 106.192 62.0815 106.097 62.3666C106.001 62.6518 105.839 62.9104 105.625 63.1214C105.41 63.3325 105.149 63.4902 104.863 63.5816C104.576 63.673 104.272 63.6956 103.975 63.6475H68.2027C68.9378 59.3155 71.315 55.4337 74.8396 52.81Z" fill="#101828"/>
<path d="M132.657 0H149.577V105.62H132.657V0Z" fill="#101828"/>
<path d="M222.399 44.56C218.985 41.2315 214.936 38.6237 210.493 36.8918C206.051 35.1599 201.306 34.3392 196.54 34.4786C191.629 34.318 186.736 35.1472 182.152 36.9167C177.568 38.6861 173.387 41.3598 169.857 44.7785C166.414 48.1638 163.709 52.2256 161.913 56.708C160.118 61.1903 159.27 65.996 159.423 70.8222C159.273 75.5762 160.071 80.3125 161.77 84.755C163.469 89.1975 166.036 93.2573 169.32 96.6979C172.508 100.042 176.359 102.684 180.626 104.455C184.894 106.225 189.484 107.086 194.103 106.981C198.737 107.161 203.332 106.07 207.39 103.825C211.448 101.579 214.813 98.2665 217.123 94.2448V105.62H232.833V69.7469C232.96 65.0512 232.097 60.3815 230.299 56.0418C228.501 51.7021 225.809 47.7898 222.399 44.56ZM210.082 85.0371C208.269 86.8837 206.091 88.3319 203.687 89.2895C201.283 90.2471 198.706 90.693 196.12 90.5987C193.538 90.6744 190.969 90.2199 188.57 89.2633C186.171 88.3067 183.994 86.8684 182.174 85.0371C180.342 83.1619 178.906 80.9366 177.954 78.4943C177.001 76.052 176.55 73.4426 176.629 70.8222C176.544 68.2212 176.993 65.6304 177.946 63.2091C178.9 60.7877 180.338 58.5868 182.174 56.7418C183.975 54.8764 186.146 53.4067 188.547 52.426C190.948 51.4454 193.527 50.9753 196.12 51.0458C198.717 50.9604 201.302 51.4235 203.708 52.405C206.114 53.3865 208.286 54.8642 210.082 56.7418C211.918 58.5868 213.356 60.7877 214.31 63.2091C215.263 65.6304 215.712 68.2212 215.627 70.8222C215.705 73.4426 215.255 76.052 214.302 78.4943C213.349 80.9366 211.914 83.1619 210.082 85.0371Z" fill="#101828"/>
<path d="M264.421 116.071C264.959 116.071 265.547 116.222 266.371 116.323C270.73 116.676 275.117 116.313 279.359 115.248C283.243 114.14 286.718 111.921 289.356 108.863C289.767 108.334 290.132 107.772 290.448 107.183C290.566 106.964 290.684 106.746 290.784 106.527C292.217 103.435 292.918 100.054 292.834 96.6475V94.816C290.793 97.6577 288.08 99.9492 284.937 101.486C281.793 103.022 278.318 103.756 274.822 103.621C265.166 103.621 257.398 100.686 251.517 94.816C245.636 88.9464 242.707 80.8644 242.73 70.5701V35.89H259.65V70.5533C259.521 72.8133 259.863 75.0754 260.656 77.1957C261.448 79.3161 262.674 81.2483 264.253 82.8695C267.587 85.6797 271.806 87.221 276.166 87.221C280.526 87.221 284.746 85.6797 288.079 82.8695C289.7 81.2713 290.962 79.3466 291.782 77.2231C292.602 75.0997 292.961 72.826 292.834 70.5533V35.89H309.754V96.6307L309.368 103.604C308.528 111.131 306.008 118.608 300.58 123.968L300.278 124.254C293.557 130.639 283.475 133.764 274.318 134.335C270.314 134.591 266.293 134.433 262.321 133.865C259.191 133.416 256.088 132.787 253.029 131.983L264.421 116.071Z" fill="#101828"/>
<path fill-rule="evenodd" clip-rule="evenodd" d="M57.3485 37.0997C56.7268 37.6206 56.122 38.1919 55.5339 38.78C51.3684 42.8433 48.1052 47.7382 45.9565 53.146C45.4188 53.146 44.8307 52.9949 44.0074 52.8941C39.6483 52.5408 35.2608 52.904 31.0191 53.9693C27.1351 55.0768 23.66 57.2963 21.0217 60.3543C20.6114 60.8829 20.246 61.445 19.9296 62.0346C19.8119 62.253 19.6943 62.4714 19.5935 62.6898C18.1613 65.7822 17.4599 69.1627 17.5436 72.5696V105.738H0.623535V72.3848C0.623535 62.7234 2.60626 52.0707 9.7977 45.0473L10.1001 44.7616C16.8211 38.3767 26.9025 35.2515 36.0598 34.6802C40.0644 34.425 44.0846 34.5826 48.0568 35.1507C51.1888 35.6222 54.2911 36.273 57.3485 37.0997Z" fill="#101828"/>
</svg>
